<svg xmlns:svg="http://www.w3.org/2000/svg" xmlns="http://www.w3.org/2000/svg" viewBox="0 0 8.4666665 10.583333625" version="1.1" x="0px" y="0px"><g transform="translate(0,-288.53332)"><path style="" d="M 4 12 A 1.9999999 1.9999999 0 0 0 2 14 L 2 28 A 1.9999999 1.9999999 0 0 0 4 30 L 28 30 A 1.9999999 1.9999999 0 0 0 30 28 L 30 12.873047 A 7.9999997 7.9999997 0 0 1 29 14.291016 L 29 15 L 28.291016 15 A 7.9999997 7.9999997 0 0 1 26.873047 16 L 29 16 L 29 18 L 3 18 L 3 16 L 19.126953 16 A 7.9999997 7.9999997 0 0 1 17.708984 15 L 3 15 L 3 14 A 1.0000001 1.0000001 0 0 1 4 13 L 16.072266 13 A 7.9999997 7.9999997 0 0 1 15.583984 12 L 4 12 z M 3 19 L 29 19 L 29 28 A 1.0000001 1.0000001 0 0 1 28 29 L 4 29 A 1.0000001 1.0000001 0 0 1 3 28 L 3 19 z " transform="matrix(0.26458333,0,0,0.26458333,0,288.53332)" fill="#868686" stroke="none"/><path style="" d="M 22.794922 2.0039062 A 7.0000006 7.0000006 0 0 0 16 9 A 7.0000006 7.0000006 0 0 0 30 9 A 7.0000006 7.0000006 0 0 0 22.794922 2.0039062 z M 22.824219 3.0019531 A 6 6 0 0 1 29 9 A 6 6 0 0 1 17 9 A 6 6 0 0 1 22.824219 3.0019531 z " transform="matrix(0.26458333,0,0,0.26458333,0,288.53332)" fill="#868686" stroke="none"/><path style="" d="M 22.957031 3.5 A 1.5 1.5 0 0 0 21.5 5 L 21.5 9 A 1.5 1.5 0 0 0 24.5 9 L 24.5 5 A 1.5 1.5 0 0 0 22.957031 3.5 z M 22.984375 4.5019531 A 0.50000005 0.50000005 0 0 1 23.5 5 L 23.5 9 A 0.50000005 0.50000005 0 0 1 22.5 9 L 22.5 5 A 0.50000005 0.50000005 0 0 1 22.984375 4.5019531 z " transform="matrix(0.26458333,0,0,0.26458333,0,288.53332)" fill="#868686" stroke="none"/><path style="" d="M 22.957031 11.5 A 1.5 1.5 0 0 0 21.5 13 A 1.5 1.5 0 0 0 24.5 13 A 1.5 1.5 0 0 0 22.957031 11.5 z M 22.986328 12.5 A 0.50000005 0.50000005 0 0 1 23.5 13 A 0.50000005 0.50000005 0 1 1 22.5 13 A 0.50000005 0.50000005 0 0 1 22.986328 12.5 z " transform="matrix(0.26458333,0,0,0.26458333,0,288.53332)" fill="#868686" stroke="none"/></g><text x="0" y="23.4666669" fill="#868686" font-size="5px" font-weight="bold" font-family="'Helvetica Neue', Helvetica, Arial-Unicode, Arial, Sans-serif">Created by Pham Duy Phuong Hung</text><text x="0" y="28.4666669" fill="#868686" font-size="5px" font-weight="bold" font-family="'Helvetica Neue', Helvetica, Arial-Unicode, Arial, Sans-serif">from the Noun Project</text></svg>