<svg width="64px" height="64px" viewBox="0 -3 21 21" version="1.1" xmlns="http://www.w3.org/2000/svg" xmlns:xlink="http://www.w3.org/1999/xlink" fill="#000000"><g id="SVGRepo_bgCarrier" stroke-width="0"></g><g id="SVGRepo_tracerCarrier" stroke-linecap="round" stroke-linejoin="round"></g><g id="SVGRepo_iconCarrier"> <title>list [#e1e1e1]</title> <desc>Created with Sketch.</desc> <defs> </defs> <g id="Page-1" stroke="none" stroke-width="1" fill="none" fill-rule="evenodd"> <g id="Dribbble-Light-Preview" transform="translate(-219.000000, -322.000000)" fill="#e1e1e1"> <g id="icons" transform="translate(56.000000, 160.000000)"> <path d="M163,177 L166.15,177 L166.15,174 L163,174 L163,177 Z M168.25,177 L184,177 L184,175 L168.25,175 L168.25,177 Z M163,171 L166.15,171 L166.15,168 L163,168 L163,171 Z M168.25,171 L184,171 L184,169 L168.25,169 L168.25,171 Z M163,165 L166.15,165 L166.15,162 L163,162 L163,165 Z M168.25,165 L184,165 L184,163 L168.25,163 L168.25,165 Z" id="list-[#e1e1e1]"> </path> </g> </g> </g> </g></svg>